<svg xmlns="http://www.w3.org/2000/svg" width="247.937" height="54.148" viewBox="0 0 247.937 54.148"><g transform="translate(-74.9 -228.5)"><path d="M76.1,238.472h6.66v24.2H76.1Zm6.625-3.312H76.1V228.5h6.66v6.66Z" transform="translate(-0.782)" fill="#fff"/><path d="M110.035,255.8h6.66v3.312h.244a6.766,6.766,0,0,1,1.743-1.987,10.616,10.616,0,0,1,2.336-1.395,8.543,8.543,0,0,1,3.487-.628,9.342,9.342,0,0,1,6.973,2.58c1.674,1.708,2.51,4.254,2.51,7.6v14.714h-6.66V266.222A5.682,5.682,0,0,0,126,262.143a4.84,4.84,0,0,0-3.661-1.36,5.311,5.311,0,0,0-2.2.488,6.129,6.129,0,0,0-1.813,1.29,5.609,5.609,0,0,0-1.22,2.022,7.109,7.109,0,0,0-.453,2.615V280.03H110V255.8Z" transform="translate(-22.862 -17.325)" fill="#fff"/><path d="M190.768,253.113H187.7V247.43h3.068V242.2h6.66v5.23H204.3v5.683h-6.869v12.831h7.113v5.683H190.768Z" transform="translate(-73.47 -8.923)" fill="#fff"/><path d="M255.775,280.662a13.35,13.35,0,0,1-5.16-1.011,12.611,12.611,0,0,1-4.149-2.72,12.222,12.222,0,0,1-2.754-4.079,12.971,12.971,0,0,1,0-10.042,12.222,12.222,0,0,1,2.754-4.079,12.985,12.985,0,0,1,4.149-2.72,13.762,13.762,0,0,1,10.355,0,11.738,11.738,0,0,1,4.045,2.754,12.668,12.668,0,0,1,2.65,4.079,13.083,13.083,0,0,1,.941,4.986v1.43H249.639a8.144,8.144,0,0,0,.732,2.2,7.06,7.06,0,0,0,1.36,1.813,6.032,6.032,0,0,0,1.883,1.22,5.278,5.278,0,0,0,2.2.453,6.461,6.461,0,0,0,2.65-.453,7.311,7.311,0,0,0,1.674-.976,4.53,4.53,0,0,0,1.151-1.43H268.4a12.961,12.961,0,0,1-2.371,4.289,14.711,14.711,0,0,1-1.674,1.569,9.762,9.762,0,0,1-2.2,1.36,12.8,12.8,0,0,1-2.824.976A15.885,15.885,0,0,1,255.775,280.662Zm5.718-15.411a6,6,0,0,0-.663-1.708,5.91,5.91,0,0,0-1.22-1.43A6.326,6.326,0,0,0,257.9,261.1a6.062,6.062,0,0,0-2.127-.384,5.7,5.7,0,0,0-3.87,1.36,6.694,6.694,0,0,0-2.057,3.173Z" transform="translate(-109.294 -17.26)" fill="#fff"/><path d="M328.6,231.3h6.66v27.51h5.474v5.683h-12.1V231.3Z" transform="translate(-165.243 -1.824)" fill="#fff"/><path d="M372.1,231.3h6.66v27.51h5.474v5.683h-12.1V231.3Z" transform="translate(-193.576 -1.824)" fill="#fff"/><path d="M430.4,264.7a3.7,3.7,0,1,1,2.72-1.081A3.791,3.791,0,0,1,430.4,264.7Z" transform="translate(-229.074 -18.628)" fill="#e6332a"/><path d="M471.5,255.8h6.66v3.312h.244a6.825,6.825,0,0,1,1.6-1.987,8.214,8.214,0,0,1,2.2-1.395,7.689,7.689,0,0,1,3.312-.628,9.722,9.722,0,0,1,3.87.7,10.83,10.83,0,0,1,2.476,1.569,7.479,7.479,0,0,1,1.708,2.231h.244a7.478,7.478,0,0,1,1.708-2.231,11.046,11.046,0,0,1,2.406-1.569,8.289,8.289,0,0,1,3.731-.7,9.039,9.039,0,0,1,6.8,2.58c1.639,1.708,2.476,4.254,2.476,7.6v14.714h-6.66V265.978A5.588,5.588,0,0,0,503.089,262a4.336,4.336,0,0,0-3.312-1.255,4.766,4.766,0,0,0-3.661,1.674,6.452,6.452,0,0,0-1.534,4.5v13.04h-6.66V265.943a5.588,5.588,0,0,0-1.185-3.975,4.336,4.336,0,0,0-3.312-1.255,4.766,4.766,0,0,0-3.661,1.674,6.452,6.452,0,0,0-1.534,4.5v13.04h-6.66V255.8Z" transform="translate(-258.319 -17.325)" fill="#fff"/><path d="M598.7,238.472h6.659v24.2H598.7Zm6.659-3.312H598.7V228.5h6.659Z" transform="translate(-341.168)" fill="#fff"/><path d="M632.735,255.8h6.659v3.312h.244a6.767,6.767,0,0,1,1.743-1.987,10.613,10.613,0,0,1,2.336-1.395,8.542,8.542,0,0,1,3.487-.628,9.342,9.342,0,0,1,6.973,2.58c1.674,1.708,2.51,4.254,2.51,7.6v14.714h-6.659V266.222a5.682,5.682,0,0,0-1.325-4.079,4.84,4.84,0,0,0-3.661-1.36,5.311,5.311,0,0,0-2.2.488,6.13,6.13,0,0,0-1.813,1.29,5.61,5.61,0,0,0-1.22,2.022,7.108,7.108,0,0,0-.453,2.615V280.03H632.7V255.8Z" transform="translate(-363.314 -17.325)" fill="#fff"/><path d="M724.775,280.662a13.35,13.35,0,0,1-5.16-1.011,12.611,12.611,0,0,1-4.149-2.72,12.222,12.222,0,0,1-2.754-4.079,12.971,12.971,0,0,1,0-10.042,12.222,12.222,0,0,1,2.754-4.079,12.984,12.984,0,0,1,4.149-2.72,13.762,13.762,0,0,1,10.355,0,11.739,11.739,0,0,1,4.045,2.754,12.668,12.668,0,0,1,2.65,4.079,13.085,13.085,0,0,1,.941,4.986v1.43H718.638a8.146,8.146,0,0,0,.732,2.2,7.062,7.062,0,0,0,1.36,1.813,6.031,6.031,0,0,0,1.883,1.22,5.278,5.278,0,0,0,2.2.453,6.46,6.46,0,0,0,2.65-.453,7.309,7.309,0,0,0,1.674-.976,5.07,5.07,0,0,0,1.151-1.43H737.4a12.961,12.961,0,0,1-2.371,4.289,14.722,14.722,0,0,1-1.674,1.569,9.761,9.761,0,0,1-2.2,1.36,12.8,12.8,0,0,1-2.824.976A15.885,15.885,0,0,1,724.775,280.662Zm5.683-15.411a6,6,0,0,0-.662-1.708,5.908,5.908,0,0,0-1.22-1.43,6.326,6.326,0,0,0-1.708-1.011,6.063,6.063,0,0,0-2.127-.384,5.7,5.7,0,0,0-3.87,1.36,6.694,6.694,0,0,0-2.057,3.173Z" transform="translate(-414.769 -17.26)" fill="#fff"/><g transform="translate(184.137 256.707)"><path d="M388.2,345.608c0,1.569,5.718,2.859,13.389,3.208V342.4C393.918,342.749,388.2,344.039,388.2,345.608Z" transform="translate(-388.2 -330.894)" fill="#fff"/><path d="M462.168,345.608c0-1.569-5.858-2.894-13.668-3.208v6.45C456.275,348.5,462.168,347.212,462.168,345.608Z" transform="translate(-427.475 -330.894)" fill="#fff"/><path d="M428.209,326.275l3.243-16.875H417.4l3.243,16.875c1.255-.07,2.58-.1,3.94-.1Z" transform="translate(-407.219 -309.4)" fill="#e6332a"/><path d="M430.54,342.2c-1.36,0-2.685.035-3.94.1v6.415c1.255.07,2.58.1,3.94.1,1.255,0,2.476-.035,3.661-.07V342.3C433.015,342.2,431.8,342.2,430.54,342.2Z" transform="translate(-413.211 -330.764)" fill="#e6332a"/></g><g transform="translate(74.9 270.34)"><path d="M78.352,358.632a2.875,2.875,0,0,1-.976-.139,3.144,3.144,0,0,1-.767-.384,3.734,3.734,0,0,1-.558-.488,2.807,2.807,0,0,1-.314-.488h0v1.395H74.9V348.8h.837v4.184h0a1.92,1.92,0,0,1,.314-.488,2.549,2.549,0,0,1,.558-.488,3.937,3.937,0,0,1,.767-.384,3.009,3.009,0,0,1,.976-.139,3.3,3.3,0,0,1,1.29.279,2.926,2.926,0,0,1,1.081.767,3.6,3.6,0,0,1,.732,1.151,4.011,4.011,0,0,1,.279,1.43,3.731,3.731,0,0,1-.279,1.43,3.254,3.254,0,0,1-.732,1.151,4.041,4.041,0,0,1-1.081.767A7.669,7.669,0,0,1,78.352,358.632Zm-.07-.767a2.34,2.34,0,0,0,.976-.209,2.813,2.813,0,0,0,.837-.593,2.65,2.65,0,0,0,.558-.907,3.269,3.269,0,0,0,0-2.3,2.65,2.65,0,0,0-.558-.906,2.43,2.43,0,0,0-.837-.593,2.383,2.383,0,0,0-1.953,0,2.812,2.812,0,0,0-.837.593,3.4,3.4,0,0,0-.593.906,3.269,3.269,0,0,0,0,2.3,2.727,2.727,0,0,0,.593.907,2.813,2.813,0,0,0,.837.593A2.34,2.34,0,0,0,78.282,357.865Z" transform="translate(-74.9 -348.695)" fill="#fff"/><path d="M101.95,363.713a2.548,2.548,0,0,1-1.046-.209,2.813,2.813,0,0,1-.837-.593,2.5,2.5,0,0,1-.558-.941,3.509,3.509,0,0,1-.209-1.255V356.6h.837v4.114a2.407,2.407,0,0,0,.523,1.674,1.84,1.84,0,0,0,1.43.558,2.818,2.818,0,0,0,.941-.174,3.734,3.734,0,0,0,.767-.523,2.07,2.07,0,0,0,.488-.8,3.071,3.071,0,0,0,.174-1.011V356.6h.837v6.939h-.837v-1.186h0a2.681,2.681,0,0,1-.314.453,1.929,1.929,0,0,1-.488.418,2.325,2.325,0,0,1-.732.314A2.862,2.862,0,0,1,101.95,363.713Z" transform="translate(-90.793 -353.776)" fill="#fff"/><path d="M122.828,350.055a.734.734,0,0,1-.453-.174.663.663,0,0,1-.174-.453.734.734,0,0,1,.174-.453.663.663,0,0,1,.453-.174.734.734,0,0,1,.453.174.663.663,0,0,1,.174.453.734.734,0,0,1-.174.453A.535.535,0,0,1,122.828,350.055Zm-.418,1.464h.837v6.938h-.837Z" transform="translate(-105.708 -348.695)" fill="#fff"/><path d="M131.6,348.6h.837v8.961h1.6v.767H131.6Z" transform="translate(-111.831 -348.565)" fill="#fff"/><path d="M144.347,358.437a3.3,3.3,0,0,1-1.29-.279,2.556,2.556,0,0,1-1.046-.767,3.255,3.255,0,0,1-.732-1.151,4.011,4.011,0,0,1-.279-1.43,3.731,3.731,0,0,1,.279-1.43,3.255,3.255,0,0,1,.732-1.151,4.489,4.489,0,0,1,1.046-.767,3.3,3.3,0,0,1,1.29-.279,2.875,2.875,0,0,1,.976.139,3.144,3.144,0,0,1,.767.384,3.733,3.733,0,0,1,.558.488,2.809,2.809,0,0,1,.314.488h0V348.5h.837v9.728h-.837v-1.395h0a2.363,2.363,0,0,1-.872.976,3.939,3.939,0,0,1-.767.384A1.934,1.934,0,0,1,144.347,358.437Zm.07-.767a2.34,2.34,0,0,0,.976-.209,2.812,2.812,0,0,0,.837-.593,3.4,3.4,0,0,0,.593-.906,3.269,3.269,0,0,0,0-2.3,2.727,2.727,0,0,0-.593-.907,2.813,2.813,0,0,0-.837-.593,2.34,2.34,0,0,0-.976-.209,2.5,2.5,0,0,0-1.011.209,2.293,2.293,0,0,0-.8.593,2.65,2.65,0,0,0-.558.907,3.268,3.268,0,0,0,0,2.3,2.711,2.711,0,0,0,1.36,1.5A2.384,2.384,0,0,0,144.417,357.67Z" transform="translate(-117.953 -348.5)" fill="#fff"/><path d="M166.928,350.055a.735.735,0,0,1-.453-.174.663.663,0,0,1-.174-.453.734.734,0,0,1,.174-.453.663.663,0,0,1,.453-.174.734.734,0,0,1,.453.174.663.663,0,0,1,.174.453.734.734,0,0,1-.174.453A.577.577,0,0,1,166.928,350.055Zm-.418,1.464h.837v6.938h-.837Z" transform="translate(-134.432 -348.695)" fill="#fff"/><path d="M175.7,356.339h.837v1.185h0a2.686,2.686,0,0,1,.314-.453,2.811,2.811,0,0,1,.488-.418,2.325,2.325,0,0,1,.732-.314,3.864,3.864,0,0,1,.976-.139,2.548,2.548,0,0,1,1.046.209,2.813,2.813,0,0,1,.837.593,2.5,2.5,0,0,1,.558.941,3.647,3.647,0,0,1,.209,1.255v4.114h-.837V359.2a2.407,2.407,0,0,0-.523-1.674,1.841,1.841,0,0,0-1.43-.558,2.818,2.818,0,0,0-.941.174,3.732,3.732,0,0,0-.767.523,1.725,1.725,0,0,0-.488.8,3.071,3.071,0,0,0-.174,1.011v3.835H175.7v-6.973Z" transform="translate(-140.554 -353.515)" fill="#fff"/><path d="M198.372,365.031h5.091v-3.277h0a2.362,2.362,0,0,1-.872.976,3.935,3.935,0,0,1-.767.384,3.009,3.009,0,0,1-.976.139,3.3,3.3,0,0,1-1.29-.279,2.556,2.556,0,0,1-1.046-.767,3.255,3.255,0,0,1-.732-1.151,4.011,4.011,0,0,1-.279-1.43,3.731,3.731,0,0,1,.279-1.43,3.256,3.256,0,0,1,.732-1.151,4.49,4.49,0,0,1,1.046-.767,3.3,3.3,0,0,1,1.29-.279,2.875,2.875,0,0,1,.976.139,3.144,3.144,0,0,1,.767.384,3.73,3.73,0,0,1,.558.488,2.806,2.806,0,0,1,.314.488h0V356.1h.837v9.588h-5.927Zm2.51-2.476a2.34,2.34,0,0,0,.976-.209,2.813,2.813,0,0,0,.837-.593,3.4,3.4,0,0,0,.593-.907,3.269,3.269,0,0,0,0-2.3,2.726,2.726,0,0,0-.593-.906,2.812,2.812,0,0,0-.837-.593,2.34,2.34,0,0,0-.976-.209,2.5,2.5,0,0,0-1.011.209,2.292,2.292,0,0,0-.8.593,2.649,2.649,0,0,0-.558.906,3.269,3.269,0,0,0,0,2.3,2.711,2.711,0,0,0,1.36,1.5A2.5,2.5,0,0,0,200.882,362.555Z" transform="translate(-154.753 -353.385)" fill="#fff"/><path d="M237.952,358.632a2.875,2.875,0,0,1-.976-.139,3.144,3.144,0,0,1-.767-.384,3.731,3.731,0,0,1-.558-.488,2.807,2.807,0,0,1-.314-.488h0v1.395H234.5V348.8h.837v4.184h0a1.92,1.92,0,0,1,.314-.488,2.547,2.547,0,0,1,.558-.488,3.937,3.937,0,0,1,.767-.384,3.008,3.008,0,0,1,.976-.139,3.3,3.3,0,0,1,1.29.279,2.927,2.927,0,0,1,1.081.767,3.6,3.6,0,0,1,.732,1.151,4.011,4.011,0,0,1,.279,1.43,3.731,3.731,0,0,1-.279,1.43,3.254,3.254,0,0,1-.732,1.151,4.041,4.041,0,0,1-1.081.767A7.208,7.208,0,0,1,237.952,358.632Zm-.07-.767a2.34,2.34,0,0,0,.976-.209,2.813,2.813,0,0,0,.837-.593,2.65,2.65,0,0,0,.558-.907,3.268,3.268,0,0,0,0-2.3,2.65,2.65,0,0,0-.558-.906,2.43,2.43,0,0,0-.837-.593,2.383,2.383,0,0,0-1.953,0,2.812,2.812,0,0,0-.837.593,3.4,3.4,0,0,0-.593.906,3.269,3.269,0,0,0,0,2.3,2.727,2.727,0,0,0,.593.907,2.813,2.813,0,0,0,.837.593A2.593,2.593,0,0,0,237.882,357.865Z" transform="translate(-178.853 -348.695)" fill="#fff"/><path d="M261.152,363.452a3.509,3.509,0,0,1-1.36-.279,2.67,2.67,0,0,1-1.081-.767,3.255,3.255,0,0,1-.732-1.151,4.011,4.011,0,0,1-.279-1.43,3.731,3.731,0,0,1,.279-1.43,3.255,3.255,0,0,1,.732-1.151,4.042,4.042,0,0,1,1.081-.767,3.454,3.454,0,0,1,2.72,0,3.283,3.283,0,0,1,1.848,1.848,3.685,3.685,0,0,1,.279,1.395v.349H258.5a3.3,3.3,0,0,0,.244,1.011,2.564,2.564,0,0,0,1.395,1.395,2.5,2.5,0,0,0,1.011.209,2.394,2.394,0,0,0,1.185-.244,3.641,3.641,0,0,0,.767-.523,2.411,2.411,0,0,0,.558-.767h.837a4.225,4.225,0,0,1-.7,1.151,3.391,3.391,0,0,1-2.65,1.151Zm2.545-4.114a2.937,2.937,0,0,0-.279-.941,2.871,2.871,0,0,0-.558-.767,2.362,2.362,0,0,0-.8-.488,2.821,2.821,0,0,0-1.953,0,2.363,2.363,0,0,0-.8.488,2.08,2.08,0,0,0-.558.767,3.734,3.734,0,0,0-.314.941Z" transform="translate(-193.964 -353.515)" fill="#fff"/><path d="M281.276,354.5H280.3v-.767h.976V352.2h.837v1.534h2.3v.767h-2.3v5.4h2.371v.767h-3.208Z" transform="translate(-208.684 -350.91)" fill="#fff"/><path d="M295.476,354.5H294.5v-.767h.976V352.2h.837v1.534h2.3v.767h-2.3v5.4h2.371v.767h-3.208V354.5Z" transform="translate(-217.933 -350.91)" fill="#fff"/><path d="M312.952,363.452a3.509,3.509,0,0,1-1.36-.279,2.669,2.669,0,0,1-1.081-.767,3.254,3.254,0,0,1-.732-1.151,4.011,4.011,0,0,1-.279-1.43,3.731,3.731,0,0,1,.279-1.43,3.254,3.254,0,0,1,.732-1.151,4.04,4.04,0,0,1,1.081-.767,3.454,3.454,0,0,1,2.72,0,3.284,3.284,0,0,1,1.848,1.848,3.686,3.686,0,0,1,.279,1.395v.349h-6.1a3.3,3.3,0,0,0,.244,1.011,2.564,2.564,0,0,0,1.395,1.395,2.5,2.5,0,0,0,1.011.209,2.394,2.394,0,0,0,1.186-.244,3.64,3.64,0,0,0,.767-.523,2.41,2.41,0,0,0,.558-.767h.837a4.224,4.224,0,0,1-.7,1.151,3.741,3.741,0,0,1-1.046.8A3.917,3.917,0,0,1,312.952,363.452Zm2.58-4.114a2.937,2.937,0,0,0-.279-.941,2.871,2.871,0,0,0-.558-.767,2.362,2.362,0,0,0-.8-.488,2.821,2.821,0,0,0-1.953,0,2.362,2.362,0,0,0-.8.488,2.079,2.079,0,0,0-.558.767,3.735,3.735,0,0,0-.314.941Z" transform="translate(-227.703 -353.515)" fill="#fff"/><path d="M334.335,356.47h.837v1.325h0a2.3,2.3,0,0,1,.488-.7,2.736,2.736,0,0,1,.7-.488,2.489,2.489,0,0,1,1.081-.209h.767v.767h-.767a2.469,2.469,0,0,0-.906.174,2.077,2.077,0,0,0-.732.488,2.414,2.414,0,0,0-.488.767,3.071,3.071,0,0,0-.174,1.011v3.835H334.3V356.47Z" transform="translate(-243.856 -353.646)" fill="#fff"/></g><rect width="7.636" height="7.636" transform="translate(197.491 238.437)" fill="#e6332a"/></g></svg>